HIERARCHY
ROOT Hips
{
	OFFSET 0.000000 97.167313 0.000000
	CHANNELS 6 Xposition Yposition Zposition Xrotation Yrotation Zrotation
	JOINT Spine
	{
		OFFSET 0.000000 13.784798 0.064400
		CHANNELS 3 Xrotation Yrotation Zrotation
		JOINT Spine1
		{
			OFFSET 0.000000 12.037903 0.404700
			CHANNELS 3 Xrotation Yrotation Zrotation
			JOINT Spine2
			{
				OFFSET 0.000000 17.795601 0.420200
				CHANNELS 3 Xrotation Yrotation Zrotation
				JOINT Neck
				{
					OFFSET 0.000000 39.131302 11.954600
					CHANNELS 3 Xrotation Yrotation Zrotation
					JOINT Head
					{
						OFFSET 0.000000 14.456192 15.627699
						CHANNELS 3 Xrotation Yrotation Zrotation
						JOINT HeadTop_End
						{
							OFFSET 0.000000 15.703506 7.603401
							CHANNELS 3 Xrotation Yrotation Zrotation
							End Site
							{
								OFFSET 0.000000 17.447403 0.000000
							}
						}
					}
				}
				JOINT LeftShoulder
				{
					OFFSET 17.399500 24.608795 1.168800
					CHANNELS 3 Xrotation Yrotation Zrotation
					JOINT LeftArm
					{
						OFFSET 18.980635 5.765305 1.818600
						CHANNELS 3 Xrotation Yrotation Zrotation
						JOINT LeftForeArm
						{
							OFFSET 49.290169 0.000000 0.000000
							CHANNELS 3 Xrotation Yrotation Zrotation
							JOINT LeftHand
							{
								OFFSET 31.562012 0.000000 0.000000
								CHANNELS 3 Xrotation Yrotation Zrotation
								JOINT LeftHandThumb1
								{
									OFFSET 6.133995 -4.388519 7.076070
									CHANNELS 3 Xrotation Yrotation Zrotation
									JOINT LeftHandThumb2
									{
										OFFSET 6.037666 -3.485840 3.485847
										CHANNELS 3 Xrotation Yrotation Zrotation
										JOINT LeftHandThumb3
										{
											OFFSET 6.496506 -3.750763 3.750761
											CHANNELS 3 Xrotation Yrotation Zrotation
											JOINT LeftHandThumb4
											{
												OFFSET 5.616882 -3.242905 3.242910
												CHANNELS 3 Xrotation Yrotation Zrotation
												End Site
												{
													OFFSET -1.254608 7.132141 0.375429
												}
											}
										}
									}
								}
								JOINT LeftHandPinky1
								{
									OFFSET 18.920792 -0.453171 -11.426712
									CHANNELS 3 Xrotation Yrotation Zrotation
									JOINT LeftHandPinky2
									{
										OFFSET 4.919586 0.000000 0.000000
										CHANNELS 3 Xrotation Yrotation Zrotation
										JOINT LeftHandPinky3
										{
											OFFSET 5.233047 0.000000 0.000000
											CHANNELS 3 Xrotation Yrotation Zrotation
											JOINT LeftHandPinky4
											{
												OFFSET 5.571716 0.000000 0.000000
												CHANNELS 3 Xrotation Yrotation Zrotation
												End Site
												{
													OFFSET -3.459808 4.342407 -0.466164
												}
											}
										}
									}
								}
								JOINT LeftHandRing1
								{
									OFFSET 22.726120 -0.094986 -6.500475
									CHANNELS 3 Xrotation Yrotation Zrotation
									JOINT LeftHandRing2
									{
										OFFSET 6.408615 0.000000 0.000000
										CHANNELS 3 Xrotation Yrotation Zrotation
										JOINT LeftHandRing3
										{
											OFFSET 6.150223 0.000000 0.000000
											CHANNELS 3 Xrotation Yrotation Zrotation
											JOINT LeftHandRing4
											{
												OFFSET 6.145386 0.000000 0.000000
												CHANNELS 3 Xrotation Yrotation Zrotation
												End Site
												{
													OFFSET -3.671402 4.923981 -0.202372
												}
											}
										}
									}
								}
								JOINT LeftHandMiddle1
								{
									OFFSET 23.373947 0.000000 0.000001
									CHANNELS 3 Xrotation Yrotation Zrotation
									JOINT LeftHandMiddle2
									{
										OFFSET 6.996567 0.000000 0.000000
										CHANNELS 3 Xrotation Yrotation Zrotation
										JOINT LeftHandMiddle3
										{
											OFFSET 7.015945 0.000000 0.000000
											CHANNELS 3 Xrotation Yrotation Zrotation
											JOINT LeftHandMiddle4
											{
												OFFSET 7.721573 0.000000 0.000000
												CHANNELS 3 Xrotation Yrotation Zrotation
												End Site
												{
													OFFSET -4.651108 6.158463 0.251582
												}
											}
										}
									}
								}
								JOINT LeftHandIndex1
								{
									OFFSET 21.310577 -0.490082 6.209344
									CHANNELS 3 Xrotation Yrotation Zrotation
									JOINT LeftHandIndex2
									{
										OFFSET 7.536453 0.000000 0.000000
										CHANNELS 3 Xrotation Yrotation Zrotation
										JOINT LeftHandIndex3
										{
											OFFSET 7.512344 0.000000 0.000000
											CHANNELS 3 Xrotation Yrotation Zrotation
											JOINT LeftHandIndex4
											{
												OFFSET 10.212402 0.000000 0.000001
												CHANNELS 3 Xrotation Yrotation Zrotation
												End Site
												{
													OFFSET -5.180801 8.690506 1.388433
												}
											}
										}
									}
								}
							}
						}
					}
				}
				JOINT RightShoulder
				{
					OFFSET -17.399500 24.608795 1.168800
					CHANNELS 3 Xrotation Yrotation Zrotation
					JOINT RightArm
					{
						OFFSET -18.980635 5.765305 1.818600
						CHANNELS 3 Xrotation Yrotation Zrotation
						JOINT RightForeArm
						{
							OFFSET -49.290169 0.000000 0.000000
							CHANNELS 3 Xrotation Yrotation Zrotation
							JOINT RightHand
							{
								OFFSET -31.562012 0.000000 0.000000
								CHANNELS 3 Xrotation Yrotation Zrotation
								JOINT RightHandThumb1
								{
									OFFSET -6.133995 -4.388519 7.076070
									CHANNELS 3 Xrotation Yrotation Zrotation
									JOINT RightHandThumb2
									{
										OFFSET -6.037666 -3.485840 3.485847
										CHANNELS 3 Xrotation Yrotation Zrotation
										JOINT RightHandThumb3
										{
											OFFSET -6.496506 -3.750763 3.750761
											CHANNELS 3 Xrotation Yrotation Zrotation
											JOINT RightHandThumb4
											{
												OFFSET -5.616882 -3.242905 3.242910
												CHANNELS 3 Xrotation Yrotation Zrotation
												End Site
												{
													OFFSET 1.254608 7.132141 0.375429
												}
											}
										}
									}
								}
								JOINT RightHandIndex1
								{
									OFFSET -21.310577 -0.490082 6.209344
									CHANNELS 3 Xrotation Yrotation Zrotation
									JOINT RightHandIndex2
									{
										OFFSET -7.536453 0.000000 0.000000
										CHANNELS 3 Xrotation Yrotation Zrotation
										JOINT RightHandIndex3
										{
											OFFSET -7.512344 0.000000 0.000000
											CHANNELS 3 Xrotation Yrotation Zrotation
											JOINT RightHandIndex4
											{
												OFFSET -10.212402 0.000000 0.000001
												CHANNELS 3 Xrotation Yrotation Zrotation
												End Site
												{
													OFFSET 5.180801 8.690506 1.388433
												}
											}
										}
									}
								}
								JOINT RightHandMiddle1
								{
									OFFSET -23.373947 0.000000 0.000001
									CHANNELS 3 Xrotation Yrotation Zrotation
									JOINT RightHandMiddle2
									{
										OFFSET -6.996567 0.000000 0.000000
										CHANNELS 3 Xrotation Yrotation Zrotation
										JOINT RightHandMiddle3
										{
											OFFSET -7.015945 0.000000 0.000000
											CHANNELS 3 Xrotation Yrotation Zrotation
											JOINT RightHandMiddle4
											{
												OFFSET -7.721573 0.000000 0.000000
												CHANNELS 3 Xrotation Yrotation Zrotation
												End Site
												{
													OFFSET 4.651108 6.158463 0.251582
												}
											}
										}
									}
								}
								JOINT RightHandRing1
								{
									OFFSET -22.726120 -0.094986 -6.500475
									CHANNELS 3 Xrotation Yrotation Zrotation
									JOINT RightHandRing2
									{
										OFFSET -6.408615 0.000000 0.000000
										CHANNELS 3 Xrotation Yrotation Zrotation
										JOINT RightHandRing3
										{
											OFFSET -6.150223 0.000000 0.000000
											CHANNELS 3 Xrotation Yrotation Zrotation
											JOINT RightHandRing4
											{
												OFFSET -6.145386 0.000000 0.000000
												CHANNELS 3 Xrotation Yrotation Zrotation
												End Site
												{
													OFFSET 3.671402 4.923981 -0.202372
												}
											}
										}
									}
								}
								JOINT RightHandPinky1
								{
									OFFSET -18.920792 -0.453171 -11.426712
									CHANNELS 3 Xrotation Yrotation Zrotation
									JOINT RightHandPinky2
									{
										OFFSET -4.919586 0.000000 0.000000
										CHANNELS 3 Xrotation Yrotation Zrotation
										JOINT RightHandPinky3
										{
											OFFSET -5.233047 0.000000 0.000000
											CHANNELS 3 Xrotation Yrotation Zrotation
											JOINT RightHandPinky4
											{
												OFFSET -5.571716 0.000000 0.000000
												CHANNELS 3 Xrotation Yrotation Zrotation
												End Site
												{
													OFFSET 3.459808 4.342407 -0.466164
												}
											}
										}
									}
								}
							}
						}
					}
				}
			}
		}
	}
	JOINT LeftUpLeg
	{
		OFFSET 19.899099 -7.885101 -3.429500
		CHANNELS 3 Xrotation Yrotation Zrotation
		JOINT LeftLeg
		{
			OFFSET 1.745560 -36.997807 10.304700
			CHANNELS 3 Xrotation Yrotation Zrotation
			JOINT LeftFoot
			{
				OFFSET -1.745558 -29.803308 -13.615400
				CHANNELS 3 Xrotation Yrotation Zrotation
				JOINT LeftToeBase
				{
					OFFSET 1.181900 -18.539904 15.226099
					CHANNELS 3 Xrotation Yrotation Zrotation
					JOINT LeftToe_End
					{
						OFFSET -0.863701 1.402801 16.534700
						CHANNELS 3 Xrotation Yrotation Zrotation
						End Site
						{
							OFFSET 0.000000 16.616566 0.000000
						}
					}
				}
			}
		}
	}
	JOINT RightUpLeg
	{
		OFFSET -19.899099 -7.885101 -3.429500
		CHANNELS 3 Xrotation Yrotation Zrotation
		JOINT RightLeg
		{
			OFFSET -1.745560 -36.997807 10.304700
			CHANNELS 3 Xrotation Yrotation Zrotation
			JOINT RightFoot
			{
				OFFSET 1.745558 -29.803308 -13.615400
				CHANNELS 3 Xrotation Yrotation Zrotation
				JOINT RightToeBase
				{
					OFFSET -1.181900 -18.539904 15.226099
					CHANNELS 3 Xrotation Yrotation Zrotation
					JOINT RightToe_End
					{
						OFFSET 0.863701 1.402801 16.534700
						CHANNELS 3 Xrotation Yrotation Zrotation
						End Site
						{
							OFFSET 0.000000 16.616566 0.000000
						}
					}
				}
			}
		}
	}
}
MOTION
Frames: 5
Frame Time: 0.033333
1.543873 61.759125 1.756649 16.318807 -10.895549 -3.911646 11.282423 16.699548 -10.295565 2.869506 4.087948 -0.126404 2.861625 4.312288 -0.311451 -0.688863 -2.356462 4.369682 -6.951130 -9.322002 11.106342 0.000001 0.000000 -0.000000 1.124708 -1.331168 -15.116520 -9.590815 31.513202 -40.008420 0.000002 -10.721314 -0.000002 15.668211 -19.583484 20.990297 -5.456658 -6.701473 3.223885 8.086167 27.604264 1.097661 -10.020017 -14.017854 7.739301 -0.000001 -0.000000 -0.000001 0.222158 4.359729 -33.120653 0.780416 2.923321 -29.888682 0.780013 2.922634 -29.880848 0.000003 0.000001 -0.000007 0.028218 3.645192 -26.113053 0.502178 2.375015 -23.874344 0.587692 2.559337 -25.860532 -0.000003 0.000001 0.000003 -1.264329 -0.680477 -18.650043 0.387941 2.098223 -20.947879 0.466472 2.292742 -22.997817 -0.000000 0.000000 0.000001 -1.866389 -6.065069 -12.588957 0.237185 1.651668 -16.342771 0.250132 1.695201 -16.786228 -0.000001 0.000005 0.000002 2.870342 11.957085 -6.152303 -33.803679 70.877570 6.927836 -0.000130 94.709575 0.000154 17.111786 20.467008 -11.105435 -15.298756 26.937493 3.982417 9.848059 -45.621603 -5.485444 -7.055445 3.101163 -14.196113 -0.000000 0.000001 0.000002 0.530846 -4.798259 13.845697 0.169909 -1.247747 15.507864 0.169800 -1.247368 15.503215 -0.000001 -0.000003 -0.000002 1.576763 -6.016259 32.822266 0.816459 -2.636018 34.413618 0.910232 -2.767783 36.402828 0.000004 0.000000 -0.000001 2.347854 -6.542670 43.827405 1.218023 -3.142181 42.367858 1.329185 -3.259712 44.358448 -0.000001 -0.000000 -0.000003 3.142797 -6.898544 54.105094 1.765791 -3.652466 51.591448 1.765235 -3.652034 51.582654 -0.000000 -0.000004 -0.000003 -92.504442 -0.552846 0.019364 42.544395 13.567499 1.606261 25.049410 26.176642 13.902728 -4.481351 0.000001 -0.000002 -0.000000 0.000001 -0.000000 31.793725 -4.864005 5.754180 26.883684 -7.810740 10.294618 -32.787548 -18.046690 15.284271 -42.282409 -0.000003 0.000006 0.000000 -0.000004 -0.000000 
0.726778 60.728592 4.786978 21.085926 -6.809532 -1.632611 10.066662 14.596934 -10.831201 2.977180 4.569698 -2.130725 2.938226 4.764392 -2.235366 -0.653878 -2.657205 3.123357 -5.574482 -12.724942 13.258042 0.000000 -0.000000 -0.000000 0.959543 -2.346800 -15.812801 -11.243161 30.004041 -37.007956 0.000009 -9.138302 0.000006 12.307705 -17.137906 15.637998 -5.245321 -5.678607 3.772690 7.935298 26.396818 1.229169 -9.312279 -11.047910 8.896905 0.000001 -0.000003 0.000001 0.271341 4.356443 -31.250731 0.688486 2.757395 -28.033591 0.688117 2.756694 -28.025782 -0.000003 -0.000000 -0.000001 0.101841 3.753919 -25.280388 0.463020 2.284588 -22.911316 0.532757 2.442884 -24.601858 -0.000001 0.000001 -0.000000 -1.033615 0.085270 -18.904598 0.369293 2.048879 -20.432531 0.433676 2.213943 -22.163686 0.000001 -0.000002 0.000004 -1.341360 -4.548549 -13.730727 0.241587 1.666604 -16.494757 0.252691 1.703658 -16.872497 -0.000000 0.000001 0.000001 2.808814 12.873861 -7.800618 -38.851926 64.587526 8.689619 0.000090 78.507772 -0.000076 12.939956 23.583265 -2.577252 -13.775528 24.252033 2.515398 9.322471 -40.998129 -5.087831 -6.807081 1.828822 -14.290513 0.000000 0.000000 0.000003 0.412633 -4.464740 12.147421 0.123490 -1.066471 13.209778 0.123416 -1.066150 13.205804 0.000001 -0.000001 -0.000001 1.189924 -5.571034 28.297682 0.597244 -2.283636 29.309544 0.666499 -2.402725 31.003117 -0.000000 0.000001 -0.000008 1.772423 -6.097473 37.660509 0.894766 -2.746690 36.081130 0.977590 -2.856770 37.775591 -0.000002 -0.000000 -0.000002 2.382607 -6.502079 46.403926 1.305026 -3.234850 43.931968 1.304607 -3.234424 43.924475 0.000000 -0.000002 0.000005 -96.555242 3.138527 -1.922771 45.508362 15.357038 0.636677 21.200504 23.211804 14.814930 -3.940042 0.000024 0.000002 0.000000 0.000002 0.000000 28.405208 -11.978075 9.110165 27.594528 -0.417005 10.081661 -32.878523 -21.780807 2.810650 -43.730081 -0.000008 -0.000007 -0.000000 -0.000002 0.000001 
-0.390242 60.139908 7.787708 25.634991 -2.373412 0.182161 8.802295 12.173444 -11.321283 3.163092 5.032122 -4.125272 3.113476 5.218299 -4.173314 -0.670385 -2.950786 1.907137 -3.986320 -16.018793 15.551429 0.000000 -0.000000 0.000000 0.728971 -2.805085 -18.495389 -14.626143 27.750399 -31.375341 0.000003 -7.346140 0.000007 6.851149 -13.854433 11.127014 -5.025152 -4.528713 4.382351 7.751621 25.013370 1.377935 -8.587999 -7.678998 10.149199 0.000003 0.000002 -0.000001 0.319400 4.356590 -29.090363 0.589011 2.562066 -25.890233 0.588702 2.561427 -25.883251 -0.000000 -0.000003 -0.000006 0.179724 3.877757 -24.297023 0.418950 2.177472 -21.779351 0.471998 2.305693 -23.135446 0.000003 0.000001 0.000002 -0.759759 0.952763 -19.163791 0.346950 1.987876 -19.797920 0.396418 2.120274 -21.178685 0.000001 0.000000 0.000001 -0.820739 -2.814148 -15.003436 0.245485 1.679691 -16.628224 0.254457 1.709427 -16.931458 -0.000002 0.000005 0.000002 2.703479 13.176933 -10.537536 -43.988351 57.364512 10.941380 -0.000001 60.121791 0.000010 12.100719 27.535593 1.341926 -12.184701 21.159417 0.989818 8.743614 -35.755210 -4.588700 -6.533613 0.384034 -14.389906 -0.000000 -0.000001 0.000003 0.298255 -4.080900 10.223224 0.079695 -0.858790 10.603414 0.079645 -0.858537 10.600244 -0.000000 0.000000 0.000003 0.814145 -5.022300 23.174670 0.387770 -1.862214 23.523149 0.433115 -1.963057 24.881831 0.000000 0.000001 -0.000001 1.205839 -5.506099 30.679451 0.583219 -2.258473 28.955392 0.637916 -2.354552 30.314555 -0.000000 -0.000000 -0.000003 1.620551 -5.911775 37.686071 0.855423 -2.691951 35.252044 0.855138 -2.691549 35.246010 0.000000 -0.000000 0.000002 -99.277790 6.694962 -3.619605 47.738938 16.937179 -0.520190 17.226716 19.948988 15.763197 -3.363934 0.000018 -0.000006 -0.000000 0.000000 0.000000 19.864224 -19.755101 9.077996 33.949503 5.089042 9.967048 -25.499376 -22.782818 -6.392671 -52.394118 -0.381807 4.015902 -0.000000 0.000001 0.000000 
-1.834110 59.576935 10.955296 29.639602 0.957622 0.912496 7.557242 9.631981 -11.753331 3.720445 5.449945 -5.885596 3.694781 5.662787 -5.922270 -0.708000 -3.129489 0.862595 -2.633262 -18.522382 17.716363 0.000000 0.000000 0.000000 0.593843 -2.012018 -22.951894 -19.043080 24.920860 -23.782714 0.000006 -5.464314 0.000003 -1.608163 -10.085371 7.619043 -4.813024 -3.323457 5.011836 7.546010 23.557454 1.533284 -7.907694 -4.135218 11.407653 -0.000001 -0.000001 -0.000001 0.360569 4.362034 -26.807695 0.491936 2.351748 -23.625870 0.491718 2.351252 -23.620532 -0.000002 -0.000004 0.000000 0.254699 4.009611 -23.249850 0.374434 2.062614 -20.575747 0.411489 2.158683 -21.581822 -0.000001 -0.000005 -0.000000 -0.462330 1.859172 -19.429959 0.323402 1.921297 -19.107541 0.358540 2.019838 -20.129966 0.000004 -0.000000 0.000004 -0.367780 -0.975381 -16.338280 0.249148 1.691914 -16.752924 0.255845 1.713989 -16.978008 -0.000000 0.000005 -0.000001 3.022847 14.315994 -14.962620 -47.820436 48.052693 12.945528 0.000015 40.562940 0.000001 10.942182 29.019237 1.608119 -10.654353 17.867961 -0.470713 8.143188 -30.256242 -4.016634 -6.255719 -1.133674 -14.485885 0.000001 -0.000002 -0.000000 0.200968 -3.672873 8.206489 0.043945 -0.638995 7.869005 0.043927 -0.638795 7.866655 -0.000001 -0.000001 -0.000001 0.496518 -4.404933 17.809274 0.214889 -1.399734 17.454782 0.240193 -1.477789 18.462655 0.000001 0.000001 -0.000004 0.722373 -4.802539 23.370705 0.324227 -1.708910 21.484061 0.354955 -1.784979 22.492033 -0.000000 0.000002 -0.000003 0.961283 -5.155190 28.561058 0.477709 -2.056414 26.153383 0.477553 -2.056093 26.148923 0.000000 -0.000001 0.000004 -101.965954 9.143829 -3.588685 51.600471 18.095080 -1.908827 12.844488 16.511736 15.628567 -2.773417 0.000018 -0.000003 0.000000 -0.000002 -0.000000 7.718621 -24.305177 4.977514 38.830520 3.809460 9.700138 -3.058045 -14.793223 -9.836820 -72.936155 -6.324418 12.432815 -0.000000 -0.000002 0.000000 
-3.572535 59.004875 13.902111 32.437801 2.721403 0.048725 6.377033 7.658361 -11.817223 4.646577 5.892270 -7.181050 4.614978 6.086796 -7.156281 -0.272550 -3.197536 0.270668 -1.959230 -19.935391 19.059042 -0.000001 0.000000 -0.000000 0.875563 0.011008 -25.866005 -21.909157 22.542746 -17.967907 0.000005 -3.683632 0.000010 -10.824075 -6.581422 5.205811 -4.624147 -2.159278 5.609943 7.338978 22.169105 1.680816 -7.323513 -0.721023 12.572976 -0.000002 -0.000000 -0.000001 0.390936 4.372701 -24.633374 0.407275 2.148026 -21.469885 0.407149 2.147716 -21.466470 0.000001 0.000001 -0.000004 0.320073 4.138688 -22.260235 0.334501 1.953009 -19.436024 0.357751 2.017639 -20.107032 -0.000001 -0.000001 0.000003 -0.170054 2.720709 -19.706849 0.301891 1.858113 -18.455680 0.324441 1.924275 -19.138837 -0.000005 -0.000003 0.000011 -0.018743 0.802994 -17.643386 0.253102 1.705028 -16.886587 0.257602 1.719743 -17.036708 -0.000000 -0.000001 0.000001 3.537318 16.865081 -13.986929 -45.472654 40.787755 8.628064 0.000006 21.890294 -0.000010 5.296825 26.475347 2.136692 -9.305511 14.674018 -1.751696 7.563987 -24.987735 -3.424902 -5.997661 -2.590007 -14.570277 -0.000000 -0.000002 0.000002 0.129714 -3.277683 6.275112 0.019565 -0.426911 5.248022 0.019547 -0.426794 5.246463 0.000001 0.000002 -0.000001 0.269456 -3.781935 12.674595 0.095981 -0.941639 11.640058 0.107350 -0.995158 12.312012 0.000000 -0.000000 -0.000004 0.375812 -4.065515 16.379098 0.145135 -1.154769 14.326279 0.158984 -1.207699 14.998192 -0.000004 0.000000 -0.000002 0.485197 -4.325505 19.835107 0.214491 -1.398474 17.438620 0.214426 -1.398264 17.435663 -0.000006 -0.000002 0.000005 -104.612974 10.152983 -1.576241 56.748780 18.625893 -3.198136 8.564824 12.931673 14.924443 -2.193853 0.000003 -0.000006 -0.000000 0.000001 0.000000 0.175384 -24.051382 1.790050 35.210090 5.402177 10.887882 21.081263 -1.249952 -7.932954 -95.758836 -3.550679 2.965798 -0.000000 0.000001 0.000000 
